<?xml version="1.0" encoding="utf-8"?>
<!-- Generator: Adobe Illustrator 19.0.0, SVG Export Plug-In . SVG Version: 6.00 Build 0)  -->
<svg version="1.1" xmlns="http://www.w3.org/2000/svg" xmlns:xlink="http://www.w3.org/1999/xlink" x="0px" y="0px"
	 viewBox="0 0 500 500" style="enable-background:new 0 0 500 500;" xml:space="preserve">
<style type="text/css">
	.st5{fill:#2D4099;stroke:#FFFFFF;stroke-width:10;stroke-miterlimit:10;display:inline;}
</style>
<g id="B">
	<g id="XMLID_398_">
		<path id="XMLID_417_" class="st5" d="M84.696,446.13l79.002-395.282h112.395c36.739,0,64.838,9.23,84.296,27.691
			c19.453,18.461,25.744,45.249,18.868,80.359c-4.166,19.912-11.538,36.969-22.126,51.175c-10.588,14.21-24.48,24.752-41.673,31.628
			c18.821,5.069,31.174,15.704,37.058,31.9c5.879,16.2,6.74,35.25,2.579,57.147c-8.145,40.362-24.209,69.683-48.188,87.961
			c-23.984,18.282-55.79,27.42-95.427,27.42H84.696z M196.276,271.837l-22.533,112.666h49.953c13.935,0,25.698-4.568,35.293-13.71
			c9.591-9.138,16.195-22.576,19.818-40.315c3.979-20.09,3.937-34.886-0.136-44.388s-13.167-14.253-27.284-14.253H196.276z
			 M207.135,217.811h38.279c13.752-0.36,25.562-5.031,35.429-14.016c9.862-8.984,16.514-21.549,19.954-37.698
			c3.801-19.776,2.715-33.66-3.258-41.643c-5.973-7.983-17.197-11.979-33.664-11.979h-35.565L207.135,217.811z"/>
	</g>
</g>
</svg>
