<?xml version="1.0" encoding="utf-8"?>
<svg version="1.1" xmlns="http://www.w3.org/2000/svg" xmlns:xlink="http://www.w3.org/1999/xlink" x="0px" y="0px"
	 viewBox="0 0 500 500" style="enable-background:new 0 0 500 500;" xml:space="preserve">
<style type="text/css">
	.st6{fill:#AB459A;stroke:#FFFFFF;stroke-width:10;stroke-miterlimit:10;display:inline;}
</style>
<g id="C" class="st0">
	<g id="XMLID_399_" class="st1">
		<path id="XMLID_430_" class="st6" d="M358.896,311.669l0.543,1.629c-10.859,45.456-27.874,79.909-51.039,103.358
			c-23.17,23.45-54.119,35.175-92.848,35.175c-37.287,0-66.832-15.653-88.64-46.967c-21.812-31.31-28.01-70.403-18.597-117.281
			l15.746-78.731c10.316-52.303,28.684-92.665,55.111-121.082c26.423-28.413,58.641-42.623,96.649-42.623
			c38.551,0,67.96,12.79,88.232,38.364c20.268,25.575,27.598,60.414,21.99,104.513h-76.287c4.344-26.809,3.394-47.056-2.851-60.732
			c-6.244-13.676-19.051-20.518-38.415-20.518c-14.843,0-28.417,9.332-40.723,27.993c-12.31,18.66-21.447,43.115-27.42,73.369
			l-15.746,79.35c-6.698,32.43-6.88,57.656-0.543,75.681c6.333,18.028,18.55,27.038,36.65,27.038
			c16.106,0,29.138-6.295,39.094-18.886c9.951-12.59,18.278-32.476,24.977-59.649H358.896z"/>
	</g>
</g>
</svg>
