<?xml version="1.0" encoding="utf-8"?>
<svg version="1.1" xmlns="http://www.w3.org/2000/svg" xmlns:xlink="http://www.w3.org/1999/xlink" x="0px" y="0px"
	 viewBox="0 0 500 500" style="enable-background:new 0 0 500 500;" xml:space="preserve">
<style type="text/css">
	.st7{fill:#DC2026;stroke:#FFFFFF;stroke-width:10;stroke-miterlimit:10;display:inline;}
</style>
<g id="D" class="st0">
	<g id="XMLID_400_" class="st1">
		<path id="XMLID_432_" class="st7" d="M84.696,446.13l79.002-395.282h106.151c36.922,0,66.691,16.111,89.318,48.324
			c22.622,32.218,29.227,71.765,19.818,118.639l-13.303,66.514c-10.499,52.125-29.55,92.126-57.147,119.996
			c-27.603,27.874-60.949,41.809-100.042,41.809H84.696z M228.04,112.475l-54.297,272.028h42.623
			c18.096,0,33.164-8.785,45.203-26.359c12.034-17.57,21.218-42.212,27.556-73.92l13.574-67.121
			c6.15-32.069,4.704-57.521-4.344-76.363c-9.053-18.843-24.073-28.264-45.066-28.264H228.04z"/>
	</g>
</g>
</svg>
