<?xml version="1.0" encoding="utf-8"?>
<svg version="1.1" xmlns="http://www.w3.org/2000/svg" xmlns:xlink="http://www.w3.org/1999/xlink" x="0px" y="0px"
	 viewBox="0 0 500 500" style="enable-background:new 0 0 500 500;" xml:space="preserve">
<style type="text/css">
	.st3{fill:#F18A21;stroke:#FFFFFF;stroke-width:10;stroke-miterlimit:10;display:inline;}
</style>
<g id="SS" class="st0">
	<g id="XMLID_393_" class="st1">
		<path id="XMLID_408_" class="st3" d="M248.335,337.923c3.435-17.918,1.942-31.356-4.479-40.315
			c-6.427-8.959-19.504-18.775-39.229-29.456c-36.379-14.839-62.849-32.531-79.409-53.075
			c-16.561-20.54-21.583-47.191-15.067-79.952c6.516-32.578,21.99-57.779,46.424-75.608c24.434-17.825,53.482-26.741,87.146-26.741
			c35.835,0,63.527,10.851,83.074,32.548c19.547,21.698,25.248,51.17,17.104,88.415l-0.543,1.357h-74.658
			c3.618-18.503,1.989-33.249-4.887-44.227c-6.881-10.978-17.646-16.467-32.306-16.467c-9.773,0-19.097,3.902-27.963,11.704
			c-8.87,7.805-14.389,17.239-16.561,28.306c-3.44,17.057-1.54,29.757,5.701,38.102c7.237,8.348,23.165,18.597,47.781,30.754
			c33.481,13.939,57.643,31.221,72.486,51.854c14.838,20.633,18.821,48.053,11.945,82.26c-6.881,33.847-22.355,59.319-46.424,76.423
			c-24.073,17.104-53.122,25.655-87.146,25.655c-35.115,0-64.478-9.816-88.097-29.456c-23.619-19.636-30.907-50.089-21.854-91.354
			l0.543-1.357h74.658c-4.708,22.987-2.129,38.822,7.737,47.51c9.862,8.688,22.94,13.031,39.229,13.031
			c9.409,0,18.639-3.844,27.691-11.538C240.28,358.603,245.981,349.146,248.335,337.923z"/>
	</g>
	<g id="XMLID_394_" class="st1">
		<path id="XMLID_406_" class="st3" d="M294.251,360.742c3.436-17.918,1.942-31.356-4.479-40.315
			c-6.427-8.959-19.505-18.775-39.23-29.456c-36.379-14.839-62.849-32.531-79.409-53.076c-16.561-20.54-21.583-47.191-15.067-79.952
			c6.516-32.578,21.99-57.779,46.424-75.608c24.434-17.825,53.483-26.741,87.147-26.741c35.836,0,63.527,10.851,83.074,32.548
			c19.547,21.698,25.248,51.17,17.104,88.415l-0.543,1.357h-74.658c3.618-18.503,1.989-33.249-4.887-44.227
			c-6.881-10.978-17.646-16.467-32.307-16.467c-9.773,0-19.098,3.902-27.963,11.704c-8.87,7.805-14.389,17.239-16.561,28.306
			c-3.44,17.057-1.54,29.757,5.701,38.102c7.237,8.348,23.166,18.597,47.782,30.754c33.481,13.939,57.644,31.221,72.486,51.854
			c14.838,20.633,18.821,48.053,11.945,82.26c-6.881,33.847-22.355,59.319-46.424,76.423
			c-24.073,17.104-53.122,25.655-87.147,25.655c-35.115,0-64.478-9.816-88.097-29.456c-23.619-19.636-30.907-50.089-21.854-91.354
			l0.543-1.357h74.658c-4.708,22.987-2.129,38.822,7.737,47.51c9.862,8.688,22.94,13.031,39.229,13.031
			c9.409,0,18.639-3.844,27.692-11.538C286.195,381.422,291.896,371.966,294.251,360.742z"/>
	</g>
</g>
</svg>
